<svg fill="#fff" xmlns="http://www.w3.org/2000/svg" viewBox="0 0 511.996 511.996"><path d="M491.875 156.349c-12.893-30.485-31.344-57.858-54.844-81.363-23.52-23.51-50.912-41.961-81.373-54.862C324.09 6.774 290.56 0 256 0c-34.554 0-68.088 6.774-99.647 20.123-30.485 12.901-57.868 31.353-81.368 54.862-23.505 23.505-41.966 50.878-54.858 81.363C6.774 187.917.004 221.441.004 256.006c0 34.549 6.77 68.078 20.123 99.646 12.892 30.48 31.353 57.854 54.858 81.373 23.5 23.5 50.882 41.951 81.368 54.844 31.559 13.352 65.094 20.127 99.647 20.127 34.56 0 68.089-6.775 99.658-20.127 30.461-12.893 57.854-31.344 81.373-54.844 23.5-23.52 41.951-50.893 54.844-81.373 13.342-31.568 20.117-65.098 20.117-99.646 0-34.565-6.775-68.089-20.117-99.657zM90.064 90.069c44.328-44.319 103.255-68.736 165.937-68.736 62.687 0 121.609 24.417 165.933 68.736 37.234 37.24 60.4 84.789 66.871 136.211-10.812 2.02-29.9 5.279-55.842 8.515-21.344 2.662-49.873 5.607-84.061 7.701-10.734-41.275-48.312-71.829-92.902-71.829-44.588 0-82.172 30.554-92.912 71.829-34.182-2.094-62.711-5.039-84.049-7.701a1140.46 1140.46 0 01-24.226-3.284c5.367-44.868 25.436-86.373 57.882-118.819 38.275-38.27 89.172-59.358 143.304-59.358 2.726 0 5.46-1.039 7.539-3.122 4.168-4.167 4.168-10.917 0-15.088a10.637 10.637 0 00-7.539-3.123c-59.833 0-116.083 23.304-158.388 65.608-35.672 35.677-57.813 81.265-63.883 130.554a651.515 651.515 0 01-10.534-1.882c6.458-51.423 29.639-98.971 66.87-136.212zm240.594 176.593c0 41.178-33.49 74.676-74.658 74.676-41.172 0-74.662-33.498-74.662-74.676 0-41.166 33.49-74.666 74.662-74.666 41.168 0 74.658 33.5 74.658 74.666zm-309.32-10.656c0-2.784.063-5.559.157-8.314 21.97 4.055 70.348 11.805 138.554 16.039a84.157 84.157 0 00-.049 2.932c0 2.588.103 5.137.304 7.656-32.941-2.068-60.505-4.93-81.265-7.529-27.48-3.422-47.27-6.871-57.677-8.857-.009-.643-.024-1.29-.024-1.927zm400.596 165.922c-44.324 44.334-103.246 68.734-165.933 68.734-62.682 0-121.608-24.4-165.937-68.734-38.638-38.639-62.138-88.402-67.53-142.059 22.936 4.225 72.53 12.029 142.059 16.127 12.422 38.637 48.701 66.666 91.407 66.666 42.707 0 78.98-28.029 91.402-66.666 45.6-2.688 82.629-6.971 109.188-10.785-6.186 43.029-25.98 82.785-57.275 114.1-38.283 38.273-89.195 59.352-143.314 59.352a10.64 10.64 0 00-7.539 3.129c-4.172 4.166-4.172 10.92 0 15.078a10.605 10.605 0 007.539 3.127c59.843 0 116.089-23.305 158.382-65.598 36.178-36.188 58.441-82.529 64.148-132.609 4.137-.695 7.773-1.322 10.932-1.92-5.393 53.655-28.893 103.419-67.529 142.058zm68.704-163.996c-10.412 1.986-30.205 5.436-57.676 8.857-20.766 2.6-48.324 5.461-81.275 7.529a89.975 89.975 0 00.263-10.588c68.207-4.234 116.58-11.984 138.541-16.039.099 2.756.157 5.531.157 8.315 0 .637 0 1.284-.01 1.926z"></path><path d="M256 213.334c-29.407 0-53.338 23.927-53.338 53.328 0 29.412 23.932 53.334 53.338 53.334 29.402 0 53.343-23.922 53.343-53.334.001-29.401-23.941-53.328-53.343-53.328zm0 85.328c-17.647 0-32-14.354-32-32 0-17.642 14.353-31.995 32-31.995 17.638 0 32 14.354 32 31.995 0 17.647-14.361 32-32 32z"></path></svg>